<svg xmlns="http://www.w3.org/2000/svg" width="400" height="300" viewBox="0 0 400 300">
  <rect width="400" height="300" fill="#0D1117"/>
  <rect x="120" y="60" width="160" height="160" fill="none" stroke="#30363d" stroke-width="1"/>
  <rect x="120" y="60" width="20" height="20" fill="#b58863"/>
  <rect x="160" y="60" width="20" height="20" fill="#f0d9b5"/>
  <rect x="200" y="60" width="20" height="20" fill="#b58863"/>
  <rect x="240" y="60" width="20" height="20" fill="#f0d9b5"/>
  <rect x="120" y="80" width="20" height="20" fill="#f0d9b5"/>
  <rect x="160" y="80" width="20" height="20" fill="#b58863"/>
  <rect x="200" y="80" width="20" height="20" fill="#f0d9b5"/>
  <rect x="240" y="80" width="20" height="20" fill="#b58863"/>
  <rect x="120" y="100" width="20" height="20" fill="#b58863"/>
  <rect x="160" y="100" width="20" height="20" fill="#f0d9b5"/>
  <rect x="200" y="100" width="20" height="20" fill="#b58863"/>
  <rect x="240" y="100" width="20" height="20" fill="#f0d9b5"/>
  <rect x="120" y="120" width="20" height="20" fill="#f0d9b5"/>
  <rect x="160" y="120" width="20" height="20" fill="#b58863"/>
  <rect x="200" y="120" width="20" height="20" fill="#f0d9b5"/>
  <rect x="240" y="120" width="20" height="20" fill="#b58863"/>
  <rect x="120" y="140" width="20" height="20" fill="#b58863"/>
  <rect x="160" y="140" width="20" height="20" fill="#f0d9b5"/>
  <rect x="200" y="140" width="20" height="20" fill="#b58863"/>
  <rect x="240" y="140" width="20" height="20" fill="#f0d9b5"/>
  <rect x="120" y="160" width="20" height="20" fill="#f0d9b5"/>
  <rect x="160" y="160" width="20" height="20" fill="#b58863"/>
  <rect x="200" y="160" width="20" height="20" fill="#f0d9b5"/>
  <rect x="240" y="160" width="20" height="20" fill="#b58863"/>
  <rect x="120" y="180" width="20" height="20" fill="#b58863"/>
  <rect x="160" y="180" width="20" height="20" fill="#f0d9b5"/>
  <rect x="200" y="180" width="20" height="20" fill="#b58863"/>
  <rect x="240" y="180" width="20" height="20" fill="#f0d9b5"/>
  <text x="200" y="265" text-anchor="middle" fill="#e6edf3" font-family="Arial" font-size="16" font-weight="bold">Chess App</text>
  <text x="200" y="285" text-anchor="middle" fill="#8b949e" font-family="Arial" font-size="11">Screenshot coming soon</text>
</svg>
